HIERARCHY
ROOT Hips
{
	OFFSET 0.000000 89.005402 0.000000
	CHANNELS 6 Xposition Yposition Zposition Xrotation Yrotation Zrotation
	JOINT Spine
	{
		OFFSET 0.116900 10.681000 0.373400
		CHANNELS 3 Xrotation Yrotation Zrotation
		JOINT Spine1
		{
			OFFSET 0.000000 13.840401 0.053500
			CHANNELS 3 Xrotation Yrotation Zrotation
			JOINT Spine2
			{
				OFFSET 0.000000 14.712700 -0.366200
				CHANNELS 3 Xrotation Yrotation Zrotation
				JOINT Neck
				{
					OFFSET 0.000000 35.415497 -3.314200
					CHANNELS 3 Xrotation Yrotation Zrotation
					JOINT Head
					{
						OFFSET 0.000000 16.899200 1.218300
						CHANNELS 3 Xrotation Yrotation Zrotation
						JOINT HeadTop_End
						{
							OFFSET 0.000000 22.206207 2.192500
							CHANNELS 3 Xrotation Yrotation Zrotation
							End Site
							{
								OFFSET 0.000000 22.314178 0.000000
							}
						}
					}
				}
				JOINT LeftShoulder
				{
					OFFSET 12.896400 26.716293 -4.548400
					CHANNELS 3 Xrotation Yrotation Zrotation
					JOINT LeftArm
					{
						OFFSET 19.027000 -4.857010 -1.718400
						CHANNELS 3 Xrotation Yrotation Zrotation
						JOINT LeftForeArm
						{
							OFFSET 24.179897 0.000000 0.000000
							CHANNELS 3 Xrotation Yrotation Zrotation
							JOINT LeftHand
							{
								OFFSET 27.156403 0.000000 0.000000
								CHANNELS 3 Xrotation Yrotation Zrotation
								JOINT LeftHandIndex1
								{
									OFFSET 16.441200 0.000000 0.000000
									CHANNELS 3 Xrotation Yrotation Zrotation
									JOINT LeftHandIndex2
									{
										OFFSET 4.821899 0.000000 0.000000
										CHANNELS 3 Xrotation Yrotation Zrotation
										JOINT LeftHandIndex3
										{
											OFFSET 6.386497 0.000000 0.000000
											CHANNELS 3 Xrotation Yrotation Zrotation
											JOINT LeftHandIndex4
											{
												OFFSET 5.188988 0.000000 0.000000
												CHANNELS 3 Xrotation Yrotation Zrotation
												End Site
												{
													OFFSET -0.178703 5.185913 0.000177
												}
											}
										}
									}
								}
								JOINT LeftHandThumb1
								{
									OFFSET 6.534897 -5.032593 5.900300
									CHANNELS 3 Xrotation Yrotation Zrotation
									JOINT LeftHandThumb2
									{
										OFFSET 3.818176 -2.204422 2.204423
										CHANNELS 3 Xrotation Yrotation Zrotation
										JOINT LeftHandThumb3
										{
											OFFSET 3.252098 -1.877594 1.877601
											CHANNELS 3 Xrotation Yrotation Zrotation
											JOINT LeftHandThumb4
											{
												OFFSET 5.251778 -3.032120 3.032117
												CHANNELS 3 Xrotation Yrotation Zrotation
												End Site
												{
													OFFSET 0.000023 6.780014 0.000000
												}
											}
										}
									}
								}
							}
						}
					}
				}
				JOINT RightShoulder
				{
					OFFSET -12.896300 26.716293 -4.548400
					CHANNELS 3 Xrotation Yrotation Zrotation
					JOINT RightArm
					{
						OFFSET -19.027000 -4.857010 -1.718400
						CHANNELS 3 Xrotation Yrotation Zrotation
						JOINT RightForeArm
						{
							OFFSET -24.179897 0.000000 0.000000
							CHANNELS 3 Xrotation Yrotation Zrotation
							JOINT RightHand
							{
								OFFSET -27.156403 0.000000 0.000000
								CHANNELS 3 Xrotation Yrotation Zrotation
								JOINT RightHandThumb1
								{
									OFFSET -6.591202 -4.852203 5.988100
									CHANNELS 3 Xrotation Yrotation Zrotation
									JOINT RightHandThumb2
									{
										OFFSET -3.818176 -2.204422 2.204423
										CHANNELS 3 Xrotation Yrotation Zrotation
										JOINT RightHandThumb3
										{
											OFFSET -3.252098 -1.877594 1.877601
											CHANNELS 3 Xrotation Yrotation Zrotation
											JOINT RightHandThumb4
											{
												OFFSET -5.251778 -3.032120 3.032117
												CHANNELS 3 Xrotation Yrotation Zrotation
												End Site
												{
													OFFSET -0.000023 6.780014 0.000000
												}
											}
										}
									}
								}
								JOINT RightHandIndex1
								{
									OFFSET -16.029404 0.000000 0.000000
									CHANNELS 3 Xrotation Yrotation Zrotation
									JOINT RightHandIndex2
									{
										OFFSET -5.213303 0.000000 0.000000
										CHANNELS 3 Xrotation Yrotation Zrotation
										JOINT RightHandIndex3
										{
											OFFSET -6.386528 0.000000 0.000000
											CHANNELS 3 Xrotation Yrotation Zrotation
											JOINT RightHandIndex4
											{
												OFFSET -5.189026 0.000000 0.000000
												CHANNELS 3 Xrotation Yrotation Zrotation
												End Site
												{
													OFFSET 0.236702 5.183624 0.001972
												}
											}
										}
									}
								}
							}
						}
					}
				}
			}
		}
	}
	JOINT LeftUpLeg
	{
		OFFSET 14.073000 -7.904099 -1.463000
		CHANNELS 3 Xrotation Yrotation Zrotation
		JOINT LeftLeg
		{
			OFFSET -0.109806 -34.073280 4.093200
			CHANNELS 3 Xrotation Yrotation Zrotation
			JOINT LeftFoot
			{
				OFFSET 0.109806 -29.899420 -6.319000
				CHANNELS 3 Xrotation Yrotation Zrotation
				JOINT LeftToeBase
				{
					OFFSET 1.551100 -14.988700 20.535801
					CHANNELS 3 Xrotation Yrotation Zrotation
					JOINT LeftToe_End
					{
						OFFSET 0.221200 0.570800 13.248301
						CHANNELS 3 Xrotation Yrotation Zrotation
						End Site
						{
							OFFSET 0.000000 13.262435 0.000000
						}
					}
				}
			}
		}
	}
	JOINT RightUpLeg
	{
		OFFSET -13.839300 -7.904099 -1.463000
		CHANNELS 3 Xrotation Yrotation Zrotation
		JOINT RightLeg
		{
			OFFSET 0.109694 -34.073219 4.093300
			CHANNELS 3 Xrotation Yrotation Zrotation
			JOINT RightFoot
			{
				OFFSET -0.109694 -29.899384 -6.319200
				CHANNELS 3 Xrotation Yrotation Zrotation
				JOINT RightToeBase
				{
					OFFSET -1.551100 -14.988700 20.535801
					CHANNELS 3 Xrotation Yrotation Zrotation
					JOINT RightToe_End
					{
						OFFSET -0.221200 0.570900 13.248299
						CHANNELS 3 Xrotation Yrotation Zrotation
						End Site
						{
							OFFSET 0.000000 13.262440 0.000000
						}
					}
				}
			}
		}
	}
}
MOTION
Frames: 5
Frame Time: 0.033333
-0.451160 74.519119 0.385299 -6.096877 -43.140930 -3.758881 5.856202 4.723902 -1.519049 11.836535 9.037612 -3.083968 11.836535 9.037612 -3.083966 -1.434738 -0.422544 0.079383 -9.161986 19.579721 -0.319073 -0.000001 0.000000 0.000000 1.392481 -0.696069 -7.878143 -17.225659 0.898728 -63.191483 0.000003 -42.610630 -0.000002 11.900963 -1.704033 21.975131 0.221380 -3.166086 -9.481595 0.086340 1.003109 -9.837822 0.145876 1.300529 -12.799407 -0.000003 0.000000 -0.000000 38.404275 -1.269684 14.611667 3.631942 6.093802 -0.671473 -10.094396 -7.227396 9.095598 0.000000 0.000000 -0.000001 1.410940 9.461549 9.792464 -1.910846 -22.605684 59.287435 0.000003 37.045963 -0.000009 -7.499297 9.436050 4.506733 -16.380289 1.669846 -6.671162 11.172356 -26.973559 -3.853784 -6.427472 -2.791296 -13.487055 -0.000003 0.000004 0.000002 0.245354 -4.322143 6.246056 0.048903 -0.673858 8.301513 0.047668 -0.665342 8.195716 -0.000000 -0.000000 0.000000 -38.501787 1.603186 16.804188 50.735929 -10.440474 -0.292193 -9.270237 -3.477628 -9.887317 -2.319083 0.000021 0.000004 -0.000000 -0.000003 -0.000000 -3.073085 -11.596707 -21.070638 48.359993 -5.112242 0.105652 -35.363144 -9.218120 22.485237 -1.784980 -0.000017 -0.000005 0.000000 0.000000 -0.000000 
-0.693561 74.797058 0.311542 -4.910838 -41.644848 -3.043009 6.075560 4.707233 -1.582439 11.869656 9.027703 -3.117586 11.873837 9.024723 -3.107167 -1.948581 -0.560817 0.308431 -9.350523 18.916769 -0.347504 -0.000000 -0.000000 0.000000 1.398103 -0.912085 -7.981888 -19.071869 -0.815806 -62.727078 0.000001 -40.691996 -0.000015 13.147045 -2.528796 22.115943 0.226625 -3.135319 -9.786300 0.090907 1.029150 -10.096012 0.149359 1.315772 -12.951927 -0.000000 0.000001 -0.000001 38.527451 -1.348400 14.547922 3.646123 6.175709 -0.662346 -10.094398 -7.227396 9.095610 -0.000000 0.000002 -0.000001 1.327447 9.281506 9.993700 -1.983706 -20.998331 59.800717 0.000007 36.492420 -0.000013 -7.296387 11.634175 2.919702 -16.297811 1.646492 -6.540831 11.163858 -26.887146 -3.847625 -6.397769 -2.978316 -13.528691 -0.000001 -0.000002 0.000002 0.229777 -4.222742 6.066124 0.048848 -0.673483 8.296762 0.047668 -0.665353 8.195853 -0.000000 -0.000000 -0.000000 -39.395886 1.473089 16.589372 49.542760 -10.346937 -0.223194 -8.305187 -4.864621 -10.046194 -2.176926 -0.000007 0.000005 0.000000 0.000003 0.000000 -2.284988 -11.982284 -19.836732 46.985698 -6.715845 0.065411 -35.187164 -9.726787 22.829841 -1.539588 0.000004 -0.000001 -0.000000 0.000001 -0.000000 
-0.959889 75.132233 0.248748 -3.674475 -40.066142 -2.371048 6.285621 4.763755 -1.589581 11.891528 9.029341 -3.138351 11.899678 9.024130 -3.116932 -2.440098 -0.718527 0.575323 -9.532900 18.211204 -0.372469 -0.000000 0.000000 -0.000000 1.398653 -1.154503 -8.073722 -20.927457 -2.557945 -62.464341 -0.000004 -38.641300 -0.000015 14.729894 -3.407566 22.304908 0.240090 -3.060253 -10.529050 0.102561 1.092567 -10.725428 0.158016 1.352854 -13.323788 0.000001 0.000000 0.000000 38.827689 -1.541849 14.393871 3.680663 6.375372 -0.640168 -10.094399 -7.227391 9.095590 0.000000 0.000001 -0.000002 1.241183 9.108023 10.170811 -2.199151 -19.210723 60.238416 -0.000004 35.815190 0.000010 -7.355310 13.089411 2.289176 -16.096596 1.590303 -6.222950 11.143116 -26.676504 -3.832500 -6.325921 -3.434306 -13.629861 -0.000002 0.000001 0.000002 0.194262 -3.980020 5.627821 0.048708 -0.672550 8.285142 0.047673 -0.665374 8.196153 0.000002 -0.000000 -0.000000 -40.235190 1.417051 16.418837 48.132265 -10.251731 -0.156987 -7.359847 -6.155271 -10.133176 -2.079082 0.000041 -0.000003 -0.000000 -0.000001 0.000000 -1.619034 -12.353216 -18.447789 45.522029 -7.582379 0.021453 -34.661834 -10.737796 22.644621 -1.562650 0.000011 -0.000004 -0.000000 0.000001 0.000000 
-1.211827 75.484604 0.216632 -2.202924 -38.439082 -1.665902 6.420096 4.891329 -1.533690 11.917010 9.043221 -3.137511 11.928601 9.037002 -3.104338 -2.988127 -0.888364 0.837368 -9.721056 17.467468 -0.419171 -0.000000 -0.000000 0.000000 1.403012 -1.363007 -8.182667 -22.737066 -4.425721 -62.407322 -0.000006 -36.539101 -0.000018 16.506414 -4.377730 22.759498 0.263970 -2.938992 -11.733052 0.122933 1.195076 -11.745833 0.172570 1.412872 -13.926610 0.000003 -0.000000 0.000001 39.313814 -1.859904 14.147899 3.736522 6.699068 -0.604465 -10.094395 -7.227393 9.095592 0.000000 -0.000001 -0.000000 1.158425 8.913374 10.299520 -2.755877 -17.187392 60.526261 -0.000002 34.859086 0.000017 -7.421392 14.431648 1.965899 -15.769802 1.501579 -5.707217 11.109443 -26.335078 -3.807943 -6.211095 -4.173734 -13.792755 0.000001 -0.000001 -0.000001 0.144167 -3.585502 4.918311 0.048494 -0.671028 8.266275 0.047677 -0.665416 8.196693 0.000000 0.000000 -0.000000 -41.437115 1.301971 16.373388 46.658679 -10.096567 -0.043009 -5.967057 -7.617897 -10.719435 -2.322478 -0.000011 -0.000004 -0.000000 -0.000001 0.000000 -1.224322 -12.702372 -16.925214 43.977812 -7.824926 -0.019727 -33.940112 -12.224306 22.042412 -1.753260 0.000020 0.000003 0.000000 -0.000000 -0.000000 
-1.415133 75.776047 0.281952 -0.373999 -36.752947 -0.862236 6.439339 5.055408 -1.422418 11.955622 9.065353 -3.111170 11.969821 9.059702 -3.065537 -3.658920 -1.070331 1.031025 -9.956721 16.635959 -0.495496 0.000002 0.000000 0.000000 1.410505 -1.530616 -8.323993 -24.460516 -6.472881 -62.532083 -0.000001 -34.409397 0.000005 18.268193 -5.513090 23.626444 0.300126 -2.776683 -13.354302 0.153249 1.332544 -13.120035 0.193145 1.493399 -14.738450 0.000000 0.000001 -0.000001 39.967221 -2.296843 13.824113 3.811468 7.135052 -0.556848 -10.094394 -7.227401 9.095596 -0.000000 0.000001 -0.000000 1.092991 8.642036 10.367154 -3.646946 -14.891742 60.659415 0.000002 33.754477 0.000007 -7.123491 16.288654 0.890363 -15.328435 1.386790 -5.012012 11.064002 -25.875328 -3.774567 -6.059603 -5.169987 -14.010035 0.000001 0.000001 -0.000001 0.091298 -3.052433 3.964491 0.048196 -0.668978 8.240907 0.047683 -0.665476 8.197408 0.000000 -0.000000 -0.000000 -43.573212 1.032665 16.419070 45.582623 -9.481938 0.162266 -3.886462 -10.287352 -12.278187 -2.971673 0.000002 0.000002 0.000000 -0.000001 -0.000000 -1.160617 -13.005662 -15.406967 42.418623 -7.891181 -0.046656 -33.227747 -13.860858 21.416526 -1.958114 0.000007 -0.000007 0.000000 0.000002 -0.000000 
